<svg width="512" height="512" viewBox="0 0 512 512" fill="none" xmlns="http://www.w3.org/2000/svg">
<rect width="512" height="512" rx="80" fill="#F8F9FB"/>
<path d="M138.321 428.353C128.597 431.754 120.002 436.21 110 437.256C110.205 431.545 114.508 431.608 117.336 430.345C157.362 412.484 192.756 387.365 227.121 360.601C232.677 356.274 234.444 351.625 229.08 345.047C203.439 365.874 176.116 383.971 145.458 400.379C146.53 394.381 149.984 392.573 152.702 390.452C177.398 371.17 200.775 350.393 223.425 328.765C228.663 323.763 231.767 318.196 232.915 310.84C237.143 283.75 253.964 264.523 273.776 247.161C271.194 259.34 262.847 269.444 262.489 282.928C273.979 270.271 281.276 255.67 287.457 240.768C294.885 222.86 311.609 216.062 324.826 204.681C329.185 209.483 325.897 212.74 324.584 215.919C309.687 251.958 288.019 283.721 262.931 313.332C256.442 320.991 256.596 321.123 259.833 331.598C305.926 284.779 337.535 230.954 352.573 166.933C343.317 174.766 334.047 182.58 324.812 190.435C300.196 211.37 273.734 230.205 251.595 253.957C228.937 278.266 209.255 304.648 196.773 335.814C196.266 337.081 195.616 338.324 194.824 339.428C194.515 339.858 193.628 339.875 192.319 340.307C190.092 336.071 191.381 331.733 191.897 327.458C196.137 292.338 210.132 261.234 231.846 233.693C237.916 225.993 237.814 220.483 232.507 212.661C212.575 183.28 184.89 166.68 150.296 160.778C148.26 160.43 146.21 160.115 144.218 159.59C143.74 159.464 143.468 158.557 143.104 158.014C169.605 134.616 221.969 150.708 264.6 196.081C313.524 153.991 367.355 116.769 396.634 56C402.318 59.3266 400.797 63.5784 400.861 67.0819C403.003 181.497 358.702 275.052 273.087 349.717C264.663 357.063 261.975 363.906 264.848 374.94C271.567 400.75 281.236 425.103 295.647 447.556C297.081 449.79 299.621 451.593 298.398 456.58C284.228 446.708 274.076 433.987 263.781 421.393C253.166 408.407 245.968 393.419 238.809 376.658C206.293 397.053 174.083 415.371 138.321 428.353Z" fill="#0E212B"/>
<path d="M237.131 136.177C237.149 116.701 245.612 105.342 261.877 101.947C275.312 99.1436 289.367 106.723 294.843 119.725C301.278 135.004 294.679 153.122 280.318 159.611C264.186 166.899 246.785 160.263 239.5 143.961C238.516 141.761 237.98 139.36 237.131 136.177Z" fill="#0E212B"/>
</svg>
