<svg width="725" height="192" viewBox="0 0 725 192" fill="none" xmlns="http://www.w3.org/2000/svg">
<path d="M13.5668 178.373C8.90868 180.002 4.79129 182.137 0 182.638C0.098343 179.902 2.15964 179.932 3.51405 179.327C22.6884 170.771 39.6436 158.738 56.1059 145.917C58.7673 143.844 59.6138 141.617 57.0442 138.466C44.7612 148.443 31.6726 157.112 16.9857 164.972C17.4993 162.099 19.1542 161.233 20.456 160.217C32.2864 150.98 43.4852 141.027 54.3356 130.666C56.8447 128.27 58.3317 125.603 58.8817 122.079C60.907 109.102 68.965 99.8913 78.4559 91.5744C77.2188 97.4084 73.2203 102.249 73.0486 108.708C78.5527 102.645 82.0486 95.6503 85.0096 88.5117C88.568 79.9329 96.5791 76.6766 102.911 71.2247C104.999 73.525 103.424 75.0853 102.795 76.6079C95.6586 93.8723 85.2785 109.088 73.2606 123.273C70.152 126.942 70.2258 127.005 71.7763 132.023C93.8567 109.595 108.999 83.8102 116.203 53.1414C111.769 56.8938 107.328 60.6374 102.904 64.4002C91.1122 74.4288 78.4355 83.4515 67.8302 94.8298C56.9761 106.475 47.5474 119.113 41.5681 134.043C41.3251 134.65 41.0139 135.245 40.6344 135.774C40.4862 135.98 40.0615 135.988 39.4345 136.195C38.3674 134.166 38.9848 132.088 39.232 130.04C41.2635 113.216 47.9677 98.316 58.3692 85.1226C61.2774 81.4338 61.2284 78.7944 58.6863 75.0472C49.138 60.9724 35.8754 53.0202 19.3036 50.1931C18.3281 50.0266 17.3463 49.8754 16.3919 49.6239C16.163 49.5635 16.0327 49.1294 15.8583 48.8691C28.5534 37.6605 53.6381 45.3694 74.0598 67.1049C97.4966 46.9421 123.284 29.1109 137.31 0C140.033 1.59357 139.304 3.63037 139.335 5.30872C140.361 60.1185 119.139 104.935 78.1257 140.703C74.0901 144.222 72.8023 147.5 74.1786 152.786C77.3975 165.15 82.0292 176.816 88.9327 187.572C89.6196 188.642 90.8366 189.506 90.2505 191.895C83.4627 187.166 78.5995 181.072 73.6678 175.039C68.5828 168.818 65.1347 161.638 61.7052 153.609C46.1284 163.379 30.6985 172.154 13.5668 178.373Z" fill="#0E212B"/>
<path d="M192.096 72.8271C201.636 85.0237 210.954 96.942 220.799 109.533C222.214 100.649 221.627 92.5657 221.721 84.521C221.815 76.3567 221.839 68.1895 221.729 60.0257C221.687 56.8336 222.914 55.4627 226.13 55.5634C230.125 55.6886 234.129 55.6609 238.126 55.5612C241.045 55.4884 242.385 56.6652 242.382 59.6711C242.35 87.0001 242.352 114.329 242.413 141.658C242.42 144.653 241.159 145.895 238.245 145.857C234.413 145.808 230.577 145.793 226.748 145.926C223.537 146.037 222.065 143.748 220.429 141.675C208.973 127.157 197.544 112.618 186.094 98.0962C184.978 96.6818 183.772 95.3388 182.547 93.8896C180.699 95.4054 181.609 96.7976 181.601 98.3003C181.532 111.965 181.205 126.012 181.502 139.67C181.61 144.625 179.802 146.223 175.136 145.87C171.657 145.607 168.141 145.779 164.642 145.828C161.508 145.873 160.332 144.613 160.372 141.288C160.655 117.644 161.016 93.9979 160.282 70.3534C160.204 67.8646 160.509 65.3659 160.584 62.8702C160.802 55.5533 160.878 56.2401 167.759 55.3821C176.051 54.3482 181.313 57.5907 185.435 64.2683C187.261 67.2265 189.709 69.8006 192.096 72.8271Z" fill="#0E212B"/>
<path d="M630.639 81.1179C652.253 95.89 648.505 127.9 633.381 139.621C621.902 148.518 607.098 149.546 594.698 141.897C594.167 141.569 593.583 141.33 592.154 140.614C592.154 148.635 592.197 156.033 592.141 163.429C592.091 170.085 592.005 170.131 585.454 170.157C581.959 170.17 578.462 170.072 574.97 170.173C571.953 170.26 570.847 168.847 570.849 165.945C570.873 137.486 570.861 109.026 570.805 80.5669C570.8 77.7606 572.12 76.6652 574.74 76.6713C578.068 76.679 581.412 76.8532 584.721 76.6001C588.617 76.3021 591.291 77.3139 591.534 82.3744C604.488 73.8393 617.338 73.2706 630.639 81.1179ZM592.497 117.772C596.079 127.632 604.256 131.819 613.671 128.615C622.576 125.585 626.912 115.45 623.738 105.086C621.034 96.2582 612.216 91.4491 603.284 93.9318C594.308 96.427 589.776 105.987 592.497 117.772Z" fill="#0E212B"/>
<path d="M430.437 69.7795C430.437 74.2352 430.437 78.1964 430.437 82.877C435.556 79.8606 439.996 77.1582 445.353 76.2727C464.515 73.1054 478.482 83.8625 479.216 103.193C479.695 115.831 479.275 128.502 479.395 141.156C479.428 144.639 477.934 145.945 474.595 145.832C470.935 145.709 467.26 145.637 463.607 145.834C459.479 146.058 458.116 144.4 458.19 140.251C458.382 129.443 458.322 118.623 458.023 107.817C457.768 98.563 453.367 94.1945 445.023 94.1966C436.825 94.1986 430.771 99.6853 430.474 108.207C430.116 118.519 430.364 128.852 430.331 139.175C430.31 145.808 430.295 145.808 423.646 145.859C409.714 145.964 409.77 145.964 409.693 131.96C409.558 107.32 409.319 82.6809 409.185 58.041C409.149 51.495 409.25 51.4944 415.947 51.48C430.404 51.4489 430.404 51.4489 430.431 65.7879C430.434 66.9536 430.435 68.1193 430.437 69.7795Z" fill="#0E212B"/>
<path d="M652.537 105.542C655.182 87.6535 670.318 75.3867 689.16 75.5112C707.43 75.6319 721.048 87.4141 723.541 105.257C725.321 117.995 725.321 117.989 712.421 117.981C701.427 117.973 690.433 117.947 679.44 118.014C677.689 118.025 675.778 117.509 673.945 118.983C675.187 124.633 679.135 127.842 684.336 129.055C691.663 130.764 699.07 130.515 705.272 125.532C708.129 123.236 709.895 123.85 711.908 126.244C713.085 127.645 714.364 128.962 715.625 130.291C720.093 134.999 720.263 135.735 715.089 139.455C702.567 148.457 688.765 149.29 674.695 144.149C661.035 139.158 653.96 128.594 652.064 114.401C651.689 111.596 651.642 108.748 652.537 105.542ZM674.09 104.814C683.141 106.241 692.246 105.325 701.323 105.333C704.575 105.335 703.733 102.94 702.95 100.99C700.681 95.3421 694.197 91.6785 687.538 92.2702C680.063 92.9344 675.102 97.2049 674.09 104.814Z" fill="#0E212B"/>
<path d="M554.488 123.797C554.527 129.628 554.315 134.978 554.681 140.287C554.975 144.561 553.275 146.039 549.239 145.763C546.751 145.593 544.229 145.586 541.745 145.786C538.072 146.082 535.045 145.611 534.677 140.5C525.836 146.715 516.656 148.485 506.731 145.952C494.542 142.84 487.572 131.537 490.903 120.156C493.292 111.995 499.441 108.244 507.233 106.494C514.478 104.866 521.842 105.709 529.152 105.426C533.732 105.249 534.509 104.1 532.824 99.9514C530.762 94.8724 526.312 93.6434 521.514 93.1607C517.662 92.773 513.824 93.2046 510.165 94.4357C506.726 95.5928 503.397 97.0757 499.38 98.6687C497.451 94.3839 495.55 90.2011 493.685 86.0017C492.852 84.1246 494.097 83.1818 495.501 82.4905C509.826 75.4338 524.602 72.7372 539.819 79.1789C549.347 83.2123 553.843 91.2129 554.347 101.306C554.712 108.621 554.463 115.966 554.488 123.797ZM533.826 122.786C533.768 120.459 534.979 117.402 530.909 117.265C525.927 117.096 520.914 116.99 516.036 118.164C512.64 118.981 510.647 121.342 510.429 124.911C510.213 128.441 512.304 130.253 515.336 131.56C521.066 134.031 532.224 131.218 533.826 122.786Z" fill="#0E212B"/>
<path d="M328.472 124.8C328.479 130.295 328.227 135.307 328.57 140.279C328.884 144.826 326.947 146.249 322.749 145.911C320.268 145.712 317.745 145.717 315.263 145.91C310.998 146.241 307.809 145.504 308.81 138.783C303.334 143.388 297.999 145.661 292.088 146.685C275.172 149.614 260.372 138.034 259.902 120.931C259.541 107.789 259.885 94.6278 259.748 81.4768C259.712 78.0044 261.116 76.6901 264.455 76.7216C283.877 76.9049 279.992 74.0376 280.354 91.6749C280.504 98.9974 280.363 106.325 280.42 113.651C280.495 123.45 284.629 128.512 292.569 128.641C301.303 128.782 307.477 122.879 307.713 113.591C307.974 103.275 308.016 92.9426 307.734 82.6287C307.606 77.9376 309.35 76.3295 313.815 76.6507C316.961 76.877 320.148 76.8238 323.299 76.6189C327.187 76.3661 328.561 77.9522 328.519 81.8465C328.365 95.9962 328.467 110.149 328.472 124.8Z" fill="#0E212B"/>
<path d="M357.469 117.787C349.657 115.732 343.344 112.464 340.93 104.415C338.205 95.3337 341.809 85.927 350.413 80.7886C360.924 74.5115 372.317 74.7591 383.87 76.8978C384.36 76.9886 384.832 77.1686 385.319 77.278C398.671 80.276 398.684 80.4818 393.158 92.8146C391.756 95.9447 390.221 96.1152 387.386 95.0571C381.733 92.9476 375.853 91.7416 369.772 92.1424C367.803 92.2722 365.819 92.661 363.914 93.1919C361.63 93.8288 360.203 95.3452 360.208 97.8976C360.214 100.56 361.914 101.853 364.177 102.326C369.547 103.45 374.96 104.362 380.348 105.403C382.143 105.75 383.945 106.126 385.69 106.665C392.661 108.82 398.097 112.751 399.29 120.414C400.594 128.795 398.195 136.058 390.864 140.893C379.645 148.293 367.281 148.068 354.718 145.647C350.294 144.794 346.028 143.382 341.931 141.459C339.361 140.253 338.474 138.688 339.858 135.913C341.551 132.516 342.941 128.967 344.711 124.917C350.599 127.466 356.104 130.229 362.239 131.034C366.736 131.624 371.199 131.949 375.577 130.471C377.921 129.68 379.841 128.33 379.699 125.512C379.569 122.956 377.744 121.617 375.522 121.16C369.66 119.955 363.754 118.971 357.469 117.787Z" fill="#0E212B"/>
<path d="M60.901 38.4082C60.9096 29.078 64.9638 23.6366 72.7554 22.0106C79.1917 20.6675 85.9243 24.2982 88.5476 30.527C91.6301 37.8459 88.4691 46.5256 81.5894 49.6338C73.8616 53.1252 65.526 49.9461 62.0358 42.137C61.5646 41.0828 61.3077 39.9328 60.901 38.4082Z" fill="#0E212B"/>
</svg>
