<svg width="16" height="18" viewBox="0 0 16 18" fill="none" xmlns="http://www.w3.org/2000/svg">
<g clip-path="url(#clip0_345_5)">
<mask id="mask0_345_5" style="mask-type:luminance" maskUnits="userSpaceOnUse" x="0" y="0" width="16" height="18">
<path d="M0 0H16V18H0V0Z" fill="white"/>
</mask>
<g mask="url(#mask0_345_5)">
<path d="M0.243307 15.6403L4.18751 11.5381C3.17341 10.3325 2.61771 8.81564 2.61771 7.23653C2.61771 3.5471 5.61941 0.54541 9.30888 0.54541C12.9983 0.54541 16 3.5471 16 7.23653C16 10.926 12.9983 13.9277 9.30888 13.9277C7.92382 13.9277 6.60392 13.5099 5.47541 12.7169L1.50121 16.8502C1.33511 17.0228 1.11171 17.1179 0.872207 17.1179C0.645607 17.1179 0.430607 17.0315 0.267407 16.8744C-0.0793931 16.5407 -0.0903925 15.9874 0.243307 15.6403ZM9.30888 2.29092C6.58181 2.29092 4.36331 4.50946 4.36331 7.23653C4.36331 9.9636 6.58181 12.1822 9.30888 12.1822C12.0359 12.1822 14.2545 9.9636 14.2545 7.23653C14.2545 4.50946 12.0359 2.29092 9.30888 2.29092Z" fill="#6B7280"/>
</g>
</g>
<defs>
<clipPath id="clip0_345_5">
<rect width="16" height="18" fill="white"/>
</clipPath>
</defs>
</svg>
